# xmcd
#
# Track frame offsets: 
#        150
#        17540
#        31489
#        49291
#        61913
#        80403
#        95438
#        107580
#        122896
#        142335
#        162239
#
# Disc length: 2460 seconds
#
# Revision: 0
# Processed by: cddbd v1.5.2PL0 Copyright (c) Steve Scherf et al.
# Submitted via: ExactAudioCopy v0.99pb5
#
DISCID=92099a0b
DTITLE=Various Artist - 2011 ACM Spotlight Disc 1
DYEAR=2011
DGENRE=Country
TTITLE0=Taylor Swift - Mine
TTITLE1=Toby Keith - Somewhere Else
TTITLE2=Keith Urban - Without You
TTITLE3=Miranda Lambert - Airstream Song
TTITLE4=Jason Aldean - Country Boy's World
TTITLE5=The Band Perry - Quittin' You
TTITLE6=Easton Corbin - The Way Love Looks
TTITLE7=The JaneDear Girls - Shotgun Girl
TTITLE8=Randy Houser - Here WIth Me
TTITLE9=Steel Magnolia - Edge of Goodbye
TTITLE10=Brad Paisley - Water (Live)
EXTD=
EXTT0=
EXTT1=
EXTT2=
EXTT3=
EXTT4=
EXTT5=
EXTT6=
EXTT7=
EXTT8=
EXTT9=
EXTT10=
PLAYORDER=
